<?xml version="1.0" standalone="no"?>
<!DOCTYPE svg PUBLIC "-//W3C//DTD SVG 20010904//EN"
 "http://www.w3.org/TR/2001/REC-SVG-20010904/DTD/svg10.dtd">
<svg version="1.0" xmlns="http://www.w3.org/2000/svg"
 width="150.000000pt" height="150.000000pt" viewBox="0 0 150.000000 150.000000"
 preserveAspectRatio="xMidYMid meet">
<metadata>
Created by potrace 1.16, written by Peter Selinger 2001-2019
</metadata>
<g transform="translate(0.000000,150.000000) scale(0.100000,-0.100000)"
fill="#000000" stroke="none">
<path d="M0 750 l0 -750 750 0 750 0 0 750 0 750 -750 0 -750 0 0 -750z m539
-187 l102 -107 -3 94 c-3 89 -4 95 -28 107 -23 12 -20 13 35 13 57 0 58 -1 37
-16 -21 -14 -22 -22 -22 -140 0 -68 -4 -124 -9 -124 -8 0 -141 133 -194 195
l-26 30 -1 -97 c0 -96 0 -98 28 -112 26 -15 25 -15 -38 -15 -63 0 -64 0 -37
15 27 15 27 15 27 124 0 109 0 109 -27 124 l-28 15 42 1 c40 0 45 -4 142 -107z
m269 5 c7 -7 12 -41 12 -81 0 -59 2 -68 16 -63 10 4 14 1 12 -6 -6 -17 -46
-22 -63 -8 -9 7 -15 8 -20 0 -3 -5 -22 -10 -40 -10 -73 0 -61 68 15 91 31 9
40 17 40 34 0 48 -55 59 -62 13 -2 -13 -10 -23 -18 -23 -22 0 -25 37 -4 52 22
16 96 17 112 1z m132 0 c0 -9 3 -9 12 0 7 7 29 12 50 12 46 0 73 -34 72 -92
-2 -58 -36 -91 -91 -86 -41 3 -43 2 -43 -25 0 -15 7 -30 15 -33 31 -12 13 -24
-35 -24 -48 0 -66 12 -35 24 22 8 22 188 0 206 -13 11 -13 15 -3 21 20 13 58
11 58 -3z m230 2 c0 -7 6 -7 19 0 81 43 151 -43 106 -130 -17 -32 -48 -45 -95
-38 -27 4 -30 2 -30 -24 0 -16 7 -31 15 -34 31 -12 13 -24 -35 -24 -48 0 -66
12 -35 24 12 4 15 26 15 105 0 84 -3 100 -17 105 -15 6 -15 8 -3 16 20 13 60
12 60 0z"/>
</g>
</svg>
