<?xml version="1.0" standalone="no"?>
<!DOCTYPE svg PUBLIC "-//W3C//DTD SVG 20010904//EN"
 "http://www.w3.org/TR/2001/REC-SVG-20010904/DTD/svg10.dtd">
<svg version="1.0" xmlns="http://www.w3.org/2000/svg"
 width="500.000000pt" height="500.000000pt" viewBox="0 0 500.000000 500.000000"
 preserveAspectRatio="xMidYMid meet">
<metadata>
Created by potrace 1.16, written by Peter Selinger 2001-2019
</metadata>
<g transform="translate(0.000000,500.000000) scale(0.100000,-0.100000)"
fill="#000000" stroke="none">
<path d="M0 2500 l0 -2500 2500 0 2500 0 0 2500 0 2500 -2500 0 -2500 0 0
-2500z m1078 -271 c-2 -17 -17 -26 -66 -41 -98 -30 -93 -7 -90 -431 3 -320 5
-368 19 -382 9 -9 46 -23 83 -31 53 -13 66 -19 66 -35 0 -18 -10 -19 -245 -19
-236 0 -245 1 -245 20 0 14 11 22 38 29 20 6 45 11 55 11 10 0 29 11 42 25
l25 24 0 360 c0 253 -3 368 -12 386 -8 17 -24 29 -52 36 -23 6 -52 15 -66 18
-15 5 -26 16 -28 29 l-3 22 241 0 c240 0 241 0 238 -21z m702 -331 c188 -194
346 -354 351 -356 13 -5 11 476 -2 537 -14 67 -34 89 -99 110 -42 14 -56 23
-58 39 -3 22 -2 22 187 22 184 0 191 -1 191 -20 0 -14 -17 -28 -61 -50 -95
-48 -92 -33 -88 -502 l4 -398 -30 0 c-26 0 -44 14 -110 87 -44 49 -204 218
-355 377 l-275 289 -3 -269 c-2 -279 5 -360 36 -387 17 -15 23 -17 100 -37 31
-8 42 -16 42 -30 0 -19 -8 -20 -205 -20 -196 0 -205 1 -205 19 0 15 13 23 53
35 126 37 127 39 127 431 l0 315 -36 39 c-24 28 -53 46 -92 59 -43 14 -58 24
-60 40 -3 22 -1 22 122 22 l125 0 341 -352z m876 16 c67 -49 69 -56 74 -282 6
-243 12 -262 66 -211 42 40 61 -5 21 -52 -30 -36 -58 -49 -104 -49 -47 0 -76
19 -93 60 l-13 31 -26 -25 c-69 -66 -206 -88 -272 -43 -41 28 -64 83 -55 132
15 76 98 129 279 177 l77 21 0 51 c0 114 -37 166 -117 166 -46 0 -98 -21 -106
-42 -2 -7 2 -28 9 -47 18 -43 18 -47 -6 -71 -25 -25 -72 -26 -93 -2 -42 46
-27 119 34 163 51 36 107 49 206 46 75 -2 97 -6 119 -23z m458 10 c3 -9 6 -31
6 -50 l0 -35 43 35 c59 48 106 66 174 66 102 -1 179 -54 224 -155 26 -58 31
-183 11 -251 -26 -90 -105 -173 -191 -202 -60 -21 -152 -15 -207 13 -27 14
-51 25 -53 25 -2 0 -1 -43 1 -96 4 -94 5 -97 36 -125 18 -16 43 -29 57 -29 18
0 25 -5 25 -20 0 -19 -7 -20 -175 -20 -146 0 -175 2 -175 15 0 8 20 23 44 34
65 28 67 43 64 391 l-3 295 -50 27 c-27 15 -50 32 -50 39 0 13 141 57 186 58
16 1 29 -6 33 -15z m776 -11 c0 -16 3 -38 6 -50 6 -22 7 -22 46 12 59 50 98
65 170 65 80 0 133 -24 181 -80 53 -62 70 -122 65 -233 -4 -106 -26 -161 -86
-222 -84 -86 -218 -111 -318 -60 -27 14 -50 25 -51 25 -2 0 -3 -36 -3 -80 0
-122 14 -145 103 -174 9 -3 17 -12 17 -21 0 -13 -25 -15 -175 -15 -148 0 -175
2 -175 15 0 8 15 21 33 28 17 8 41 24 52 37 19 21 20 39 23 330 l3 308 -22 21
c-13 12 -38 27 -56 33 -55 20 -38 40 52 65 44 12 92 22 108 22 23 1 27 -3 27
-26z"/>
<path d="M2528 1604 c-37 -14 -83 -40 -103 -57 -31 -27 -37 -39 -37 -72 0 -57
39 -90 96 -81 23 4 59 19 81 34 l40 28 3 87 c1 48 -1 87 -5 86 -4 0 -38 -12
-75 -25z"/>
<path d="M3241 1850 c-18 -4 -52 -21 -75 -37 l-41 -29 0 -145 c0 -157 9 -189
66 -231 55 -42 156 -41 203 0 54 49 83 201 57 298 -29 107 -116 167 -210 144z"/>
<path d="M4019 1850 c-37 -11 -71 -30 -96 -53 -22 -19 -23 -28 -23 -152 0
-116 3 -136 23 -175 26 -52 59 -78 113 -90 80 -19 157 26 186 108 7 20 13 78
13 127 0 74 -4 99 -24 138 -36 75 -123 118 -192 97z"/>
</g>
</svg>
