<?xml version="1.0" standalone="no"?>
<!DOCTYPE svg PUBLIC "-//W3C//DTD SVG 20010904//EN"
 "http://www.w3.org/TR/2001/REC-SVG-20010904/DTD/svg10.dtd">
<svg version="1.0" xmlns="http://www.w3.org/2000/svg"
 width="500.000000pt" height="500.000000pt" viewBox="0 0 500.000000 500.000000"
 preserveAspectRatio="xMidYMid meet">
<metadata>
Created by potrace 1.16, written by Peter Selinger 2001-2019
</metadata>
<g transform="translate(0.000000,500.000000) scale(0.100000,-0.100000)"
fill="#000000" stroke="none">
<path d="M0 2500 l0 -2500 2500 0 2500 0 0 2500 0 2500 -2500 0 -2500 0 0
-2500z m1078 -271 c-2 -16 -17 -26 -63 -40 -100 -31 -95 -8 -95 -418 0 -266 3
-362 13 -381 10 -20 28 -29 85 -44 57 -15 72 -23 72 -37 0 -18 -13 -19 -245
-19 -236 0 -245 1 -245 20 0 14 11 22 38 29 20 6 45 11 55 11 10 0 29 11 42
25 l25 24 0 360 c0 253 -3 368 -12 386 -8 17 -24 29 -52 36 -23 6 -52 15 -66
18 -15 5 -26 16 -28 29 l-3 22 241 0 c240 0 241 0 238 -21z m709 -338 l348
-360 3 247 c3 344 -6 378 -108 411 -42 14 -56 23 -58 39 -3 22 -2 22 187 22
184 0 191 -1 191 -20 0 -14 -17 -28 -61 -50 -45 -23 -64 -39 -74 -63 -16 -39
-23 -566 -10 -734 l8 -103 -34 0 c-30 0 -44 11 -119 92 -47 51 -206 221 -355
377 l-270 284 -3 -269 c-2 -279 5 -360 36 -387 17 -15 23 -17 100 -37 31 -8
42 -16 42 -30 0 -19 -8 -20 -205 -20 -196 0 -205 1 -205 19 0 15 13 23 58 36
121 35 122 39 122 430 l0 315 -36 39 c-24 28 -53 46 -92 59 -43 14 -58 24 -60
40 -3 22 -1 22 122 22 l125 0 348 -359z m858 29 c73 -35 79 -56 85 -290 6
-240 12 -260 66 -209 12 12 27 18 33 14 20 -12 11 -42 -24 -78 -31 -32 -42
-37 -83 -37 -55 0 -84 17 -102 60 l-12 30 -33 -29 c-50 -44 -114 -64 -185 -59
-71 5 -109 29 -129 81 -42 110 43 188 272 249 l77 21 0 51 c0 114 -37 166
-117 166 -46 0 -98 -21 -106 -42 -2 -7 2 -28 9 -46 22 -55 -2 -92 -60 -92 -50
0 -80 74 -52 128 34 65 116 100 240 101 60 1 90 -4 121 -19z m469 4 c3 -9 6
-31 6 -50 l0 -35 43 35 c59 48 106 66 174 66 100 -1 180 -55 222 -150 76 -177
-5 -395 -172 -457 -59 -21 -158 -16 -213 12 -27 14 -51 25 -53 25 -2 0 -1 -43
1 -96 4 -94 5 -97 36 -125 18 -16 43 -29 57 -29 18 0 25 -5 25 -20 0 -19 -7
-20 -175 -20 -146 0 -175 2 -175 15 0 8 20 23 44 34 65 28 67 43 64 391 l-3
295 -50 27 c-27 15 -50 32 -50 39 0 13 141 57 186 58 16 1 29 -6 33 -15z m776
-18 c0 -65 8 -69 52 -32 59 51 98 66 170 66 78 0 130 -23 179 -77 54 -59 72
-125 67 -237 -5 -105 -27 -162 -86 -221 -84 -86 -218 -111 -318 -60 -27 14
-50 25 -51 25 -2 0 -3 -38 -3 -85 0 -55 5 -96 14 -114 15 -28 53 -51 86 -51
13 0 20 -7 20 -20 0 -19 -7 -20 -175 -20 -148 0 -175 2 -175 15 0 8 15 21 33
28 17 8 41 24 52 37 19 21 20 39 23 330 l4 308 -23 21 c-13 12 -38 27 -56 33
-55 20 -38 40 52 65 44 12 92 22 108 22 24 1 27 -2 27 -33z"/>
<path d="M2528 1604 c-37 -14 -83 -40 -103 -57 -31 -27 -37 -39 -37 -72 0 -30
6 -45 27 -62 32 -28 57 -29 115 -2 76 34 80 41 80 136 0 45 -3 83 -7 82 -5 0
-38 -12 -75 -25z"/>
<path d="M3241 1850 c-18 -4 -52 -21 -75 -37 l-41 -29 -3 -99 c-4 -131 4 -197
31 -236 32 -48 77 -71 143 -71 67 -1 98 18 133 82 29 52 40 179 22 246 -29
107 -116 167 -210 144z"/>
<path d="M4025 1850 c-38 -8 -74 -27 -102 -53 -22 -19 -23 -28 -23 -152 0
-116 3 -136 23 -175 37 -72 107 -107 182 -90 53 12 80 34 106 87 20 40 24 64
24 143 0 80 -4 103 -24 143 -36 74 -112 114 -186 97z"/>
</g>
</svg>
